<svg xmlns="http://www.w3.org/2000/svg" xmlns:xlink="http://www.w3.org/1999/xlink" width="340.623" height="47.11" viewBox="0 0 340.623 47.11">
  <defs>
    <clipPath id="clip-path">
      <rect id="사각형_6" data-name="사각형 6" width="260.981" height="47.11" fill="none"/>
    </clipPath>
    <clipPath id="clip-path-2">
      <rect id="사각형_5099" data-name="사각형 5099" width="72.623" height="21.57" transform="translate(0 0)" fill="none"/>
    </clipPath>
  </defs>
  <g id="그룹_7056" data-name="그룹 7056" transform="translate(-260 -24.132)">
    <g id="그룹_7" data-name="그룹 7" transform="translate(260 24.133)">
      <g id="그룹_6" data-name="그룹 6" transform="translate(0 0)" clip-path="url(#clip-path)">
        <path id="패스_6" data-name="패스 6" d="M174.459,2.283A2.283,2.283,0,1,1,172.176,0a2.283,2.283,0,0,1,2.283,2.283" transform="translate(-51.634 0)" fill="#4aacc6"/>
        <path id="패스_7" data-name="패스 7" d="M230.686,2.283A2.283,2.283,0,1,1,228.4,0a2.283,2.283,0,0,1,2.283,2.283" transform="translate(-68.722 0)" fill="#4aacc6"/>
        <path id="패스_8" data-name="패스 8" d="M202.572,2.283A2.283,2.283,0,1,1,200.289,0a2.283,2.283,0,0,1,2.283,2.283" transform="translate(-60.178 0)" fill="#bfbebe"/>
        <path id="패스_9" data-name="패스 9" d="M0,10.242v23.1L30.893,47.537V1.406Z" transform="translate(0 -0.427)" fill="#4aacc6"/>
        <path id="패스_10" data-name="패스 10" d="M47.98,1.406V47.537L68.437,33.76V10.242Z" transform="translate(-14.582 -0.427)" fill="#c0bec0"/>
        <path id="패스_11" data-name="패스 11" d="M95.924,15.683A9.641,9.641,0,0,1,94.679,19.3l4.767,4.344a1.584,1.584,0,0,1,.517.939.969.969,0,0,1-.352.869,1.149,1.149,0,0,1-1.01.212,1.713,1.713,0,0,1-.986-.611L93.693,20.8a22.154,22.154,0,0,1-4.861,5.049q-.7.527-1.2.07c-.352-.282-.306-.611.164-1.034a18.107,18.107,0,0,0,5.425-8.642c.047-.235.024-.376-.118-.47-.164-.047-.4-.117-.728-.188-.539-.093-.775-.352-.7-.821a.69.69,0,0,1,.775-.658h1.643a2.058,2.058,0,0,1,1.48.447,1.376,1.376,0,0,1,.352,1.127m6.552-1.879a1.33,1.33,0,0,0-.188-.869,2.664,2.664,0,0,0-.7-.281,3.045,3.045,0,0,1-.822-.283.519.519,0,0,1-.329-.54q0-.775.986-.775h2.02c.963,0,1.456.353,1.456,1.033V29.727q0,2.184-1.832,2.184h-.587V20.333H98.483q-1.127,0-1.127-.986c0-.633.376-.963,1.127-.963h3.992Z" transform="translate(-26.563 -3.36)" fill="#1c1c1b"/>
        <path id="패스_12" data-name="패스 12" d="M127.682,23.364a3.94,3.94,0,0,1-.189,1.291h3.9c.752,0,1.151.447,1.151,1.292v2.607c0,.94-.4,1.409-1.151,1.409h-7.867v1.151c0,.258.164.375.493.375h8.148q1.128,0,1.128.986c0,.658-.4.963-1.174.963h-9.229a1.579,1.579,0,0,1-1.785-1.808V30.62c0-.7-.211-1.057-.634-1.1a.525.525,0,0,1-.4-.212.685.685,0,0,1-.188-.564q0-.7.845-.7h9.394V26.581h-8.572c-.751,0-1.127-.306-1.127-.94q0-.986,1.127-.986h4.039V23.083h-8.079c-.751,0-1.1-.329-1.1-.986,0-.635.353-.963,1.1-.963h18.106c.8,0,1.2.329,1.2.963q0,.986-1.2.986h-7.937ZM132,15.849a4.1,4.1,0,0,1-1.573,3.194,5.4,5.4,0,0,1-1.714.986,6.442,6.442,0,0,1-2.113.352,6.247,6.247,0,0,1-2.114-.352,4.921,4.921,0,0,1-1.714-.986,4.032,4.032,0,0,1-1.574-3.194,4.143,4.143,0,0,1,1.574-3.217,4.91,4.91,0,0,1,1.714-.986,6.247,6.247,0,0,1,2.114-.352,6.442,6.442,0,0,1,2.113.352,5.392,5.392,0,0,1,1.714.986A4.22,4.22,0,0,1,132,15.849m-2.442,0a2.373,2.373,0,0,0-.869-1.855,3.587,3.587,0,0,0-.963-.564,3.774,3.774,0,0,0-1.127-.187,3.544,3.544,0,0,0-1.128.187,3,3,0,0,0-.963.564,2.3,2.3,0,0,0-.869,1.855,2.225,2.225,0,0,0,.869,1.832,2.579,2.579,0,0,0,.963.54,3.016,3.016,0,0,0,1.128.211,3.2,3.2,0,0,0,1.127-.211,3,3,0,0,0,.963-.54,2.293,2.293,0,0,0,.869-1.832" transform="translate(-35.379 -3.432)" fill="#1c1c1b"/>
        <path id="패스_13" data-name="패스 13" d="M171.658,18.674h-8.83q-1.128,0-1.128-.986c0-.634.376-.963,1.128-.963H171.7c0-.7-.023-1.456-.047-2.3h-8.689c-.751,0-1.127-.3-1.127-.963s.376-.986,1.127-.986h9.77a1.231,1.231,0,0,1,1.362,1.409,30.124,30.124,0,0,1-1.034,7.21h4.251q1.2,0,1.2.986t-1.2.986H159.212c-.752,0-1.1-.329-1.1-.986s.352-.986,1.1-.986H171.4a5.55,5.55,0,0,1,.118-.658q.07-.493.141-1.761m-9.229,9.511h9.394v-1.62h-8.571c-.752,0-1.128-.306-1.128-.939q0-.987,1.128-.986h9.839c.751,0,1.151.423,1.151,1.268V28.7c0,.94-.4,1.41-1.151,1.41h-7.866v1.338c0,.283.164.4.493.4h8.149q1.127,0,1.127.986c0,.658-.4.963-1.174.963h-9.229a1.579,1.579,0,0,1-1.785-1.808V30.768c0-.7-.212-1.057-.634-1.1a.526.526,0,0,1-.4-.212.686.686,0,0,1-.188-.563q0-.7.845-.705" transform="translate(-48.052 -3.791)" fill="#4aacc6"/>
        <path id="패스_14" data-name="패스 14" d="M189.217,18.994h7.209V16.012h-6.5c-.775,0-1.151-.329-1.151-.986,0-.634.376-.963,1.174-.963h7.7c.775,0,1.174.423,1.174,1.268v4.062c-.023,1.01-.446,1.5-1.291,1.5h-5.589v2.724q0,.352.423.352h6.787c.751,0,1.151.329,1.151.963q0,.986-1.2.986h-8.056c-1.009,0-1.526-.541-1.526-1.621V21.555c0-.681-.212-1.033-.634-1.08a.525.525,0,0,1-.4-.211.688.688,0,0,1-.188-.564q0-.7.916-.705m16.462,10.8c0,1.409-.634,2.113-1.855,2.113h-.565V13.8a1.333,1.333,0,0,0-.187-.869,2.709,2.709,0,0,0-.7-.281,3.017,3.017,0,0,1-.821-.282.52.52,0,0,1-.329-.541q0-.775.986-.775h2.019c.963,0,1.456.353,1.456,1.034Z" transform="translate(-57.228 -3.36)" fill="#4aacc6"/>
        <path id="패스_15" data-name="패스 15" d="M228.274,20.615a6.95,6.95,0,0,1-.352,1.057,5.5,5.5,0,0,1-1.2,1.69,5.337,5.337,0,0,1-1.761,1.151,5.432,5.432,0,0,1-2.184.445,5.121,5.121,0,0,1-2.184-.445,5.216,5.216,0,0,1-1.785-1.151,5.034,5.034,0,0,1-1.151-1.69,4.639,4.639,0,0,1-.446-2.044,4.887,4.887,0,0,1,.446-2.067,5.175,5.175,0,0,1,1.151-1.667A6.046,6.046,0,0,1,220.6,14.72a5.483,5.483,0,0,1,2.184-.423,5.826,5.826,0,0,1,2.184.423,6.23,6.23,0,0,1,1.761,1.174,5.687,5.687,0,0,1,1.2,1.667,9.933,9.933,0,0,1,.352,1.1h3.734V13.8a1.331,1.331,0,0,0-.187-.869,2.69,2.69,0,0,0-.7-.282,3.022,3.022,0,0,1-.822-.282.519.519,0,0,1-.329-.54q0-.775.986-.775h2.019c.963,0,1.456.352,1.456,1.033V29.727q0,2.184-1.832,2.184h-.588v-11.3Zm-2.325-.986a3.649,3.649,0,0,0-.258-1.316,4.163,4.163,0,0,0-.7-1.056,3.761,3.761,0,0,0-.986-.705,3.143,3.143,0,0,0-1.2-.258,2.774,2.774,0,0,0-1.174.258,3.89,3.89,0,0,0-1.01.705,3.33,3.33,0,0,0-.963,2.372,2.952,2.952,0,0,0,.258,1.291,2.36,2.36,0,0,0,.539.94,3.573,3.573,0,0,0,1.175.869,2.762,2.762,0,0,0,1.174.235,2.8,2.8,0,0,0,1.2-.282,3.217,3.217,0,0,0,.986-.681,3.585,3.585,0,0,0,.7-1.08,3.334,3.334,0,0,0,.258-1.291" transform="translate(-66.015 -3.36)" fill="#4aacc6"/>
        <path id="패스_16" data-name="패스 16" d="M276.367,30.286H258.261c-.752,0-1.1-.329-1.1-.986,0-.634.352-.963,1.1-.963h4.2V23.57a1.191,1.191,0,0,0-.117-.634,1.422,1.422,0,0,0-.587-.235c-.445-.094-.657-.329-.657-.728,0-.47.281-.728.869-.728h1.6c.821,0,1.245.329,1.245.939v6.153h2.56V23.1a1.178,1.178,0,0,0-.118-.633,1.407,1.407,0,0,0-.587-.235c-.47-.094-.682-.329-.682-.728,0-.47.283-.728.893-.728h1.6c.822,0,1.245.329,1.245.94v6.622h6.646c.8,0,1.2.329,1.2.963q0,.986-1.2.986M261.619,14.364h10.4a1.238,1.238,0,0,1,1.386,1.409,56.181,56.181,0,0,1-.4,5.824,19.49,19.49,0,0,1-.892,3.546.856.856,0,0,1-1.127.564c-.4-.141-.54-.47-.423-1.033a57,57,0,0,0,.423-8.337h-9.347q-1.127,0-1.127-.986c0-.657.352-.986,1.1-.986" transform="translate(-78.155 -4.365)" fill="#1c1c1b"/>
        <path id="패스_17" data-name="패스 17" d="M299.262,23.011a1.22,1.22,0,0,1-1.762-.094l-3.147-2.936a20.832,20.832,0,0,1-5.518,3.64c-.611.282-.986.234-1.151-.165-.188-.376-.071-.7.4-1.009a20.68,20.68,0,0,0,4.321-3.5,13.018,13.018,0,0,0,2.466-3.617h-5.448q-1.128,0-1.128-.986c0-.634.376-.963,1.128-.963H296.4a1.63,1.63,0,0,1,1.2.446,1.28,1.28,0,0,1,.235,1.127,10.4,10.4,0,0,1-2.231,3.781l3.523,2.653a1.19,1.19,0,0,1,.446.752,1.009,1.009,0,0,1-.3.869m5.237,5.965a4.047,4.047,0,0,1-.422,1.831,4.786,4.786,0,0,1-1.127,1.5,4.855,4.855,0,0,1-1.668,1.033,5.213,5.213,0,0,1-2.067.4,4.945,4.945,0,0,1-2.043-.4,4.841,4.841,0,0,1-1.714-1.033,4.31,4.31,0,0,1-1.08-1.5,4.038,4.038,0,0,1-.422-1.831,4.186,4.186,0,0,1,.422-1.832,4.546,4.546,0,0,1,1.08-1.5,6.093,6.093,0,0,1,1.691-1.057,5.4,5.4,0,0,1,2.067-.4,5.677,5.677,0,0,1,2.067.4,6.324,6.324,0,0,1,1.668,1.057,5.08,5.08,0,0,1,1.127,1.5,4.2,4.2,0,0,1,.422,1.832m-2.443,0A2.7,2.7,0,0,0,301.21,27a2.826,2.826,0,0,0-2-.822,2.848,2.848,0,0,0-2.818,2.795,2.546,2.546,0,0,0,.846,1.949,2.61,2.61,0,0,0,1.973.821,2.732,2.732,0,0,0,2-.821,2.543,2.543,0,0,0,.846-1.949m.329-15.171a1.566,1.566,0,0,0-.164-.869,2.666,2.666,0,0,0-.705-.281,3.062,3.062,0,0,1-.822-.283.537.537,0,0,1-.352-.54c0-.516.329-.775,1.01-.775h2c.963,0,1.456.353,1.456,1.033V22.306c0,1.48-.61,2.208-1.832,2.208h-.587v-5.5H299q-1.128,0-1.128-.986c0-.634.377-.963,1.128-.963h3.381Z" transform="translate(-87.407 -3.36)" fill="#1c1c1b"/>
        <path id="패스_18" data-name="패스 18" d="M318.287,17.938q-1.127,0-1.127-.986c0-.634.376-.963,1.127-.963h7.257a1.4,1.4,0,0,1,1.033.447,1.087,1.087,0,0,1,.164,1.1A12.294,12.294,0,0,1,324.3,21.3l3.734,3.123a.982.982,0,0,1,.095,1.573,1.063,1.063,0,0,1-1.668-.07l-3.405-3.406a29.35,29.35,0,0,1-5.166,3.687c-.682.4-1.174.4-1.456.024-.306-.376-.141-.752.47-1.174a24.537,24.537,0,0,0,4.227-3.476,12.906,12.906,0,0,0,2.606-3.639Zm1.527-3.9c-.211-.141-.445-.3-.728-.516a.715.715,0,0,1-.376-.563.788.788,0,0,1,.165-.611c.211-.306.61-.352,1.222-.164a8.455,8.455,0,0,0,2.019.516,16.877,16.877,0,0,0,2.113.094c.7,0,1.08.329,1.08.963,0,.658-.446.963-1.316.963h-1.925a4.063,4.063,0,0,1-2.255-.681M333.481,29.8c0,1.409-.634,2.113-1.855,2.113h-.564V13.8a1.337,1.337,0,0,0-.187-.869,2.716,2.716,0,0,0-.705-.281,3.024,3.024,0,0,1-.821-.282.52.52,0,0,1-.329-.541q0-.775.986-.775h2.019c.963,0,1.456.353,1.456,1.034Z" transform="translate(-96.124 -3.36)" fill="#1c1c1b"/>
        <path id="패스_19" data-name="패스 19" d="M352.274,28.059h-6.74c-.751,0-1.1-.329-1.1-.986,0-.634.352-.963,1.1-.963h3.547V21.6c0-.423-.165-.657-.493-.7-.565-.07-.823-.329-.823-.775,0-.493.329-.751,1.033-.751h1.456c.8,0,1.222.329,1.222.963V26.11h.916c1.1,0,2.019,0,2.724-.024a12.643,12.643,0,0,0,2.23-.188c.611-.094.986,0,1.128.329a.716.716,0,0,1-.376.892,6.035,6.035,0,0,1-2.137.658,20.3,20.3,0,0,1-3.687.282m-5.612-12.47q-1.128,0-1.128-.986t1.128-.986h8.079A1.238,1.238,0,0,1,356.149,15a44.264,44.264,0,0,1-1.2,7.984.836.836,0,0,1-1.151.61q-.494-.14-.423-.986a43.4,43.4,0,0,0,.352-7.021ZM359.109,13.8a1.287,1.287,0,0,0-.212-.892,3.6,3.6,0,0,0-.752-.283,2.432,2.432,0,0,1-.775-.282.5.5,0,0,1-.306-.516q0-.775.986-.775h2.02c.963,0,1.456.353,1.456,1.033v7.257h2.982c.752,0,1.151.329,1.151.986s-.4.986-1.151.986h-2.982V29.8c0,1.409-.635,2.113-1.855,2.113h-.564Z" transform="translate(-104.679 -3.36)" fill="#1c1c1b"/>
        <path id="패스_20" data-name="패스 20" d="M91.7,60.08V58.944a2.176,2.176,0,0,0,.467.309,3.716,3.716,0,0,0,.574.232,4.46,4.46,0,0,0,.6.146,3.341,3.341,0,0,0,.562.052,2.2,2.2,0,0,0,1.327-.33,1.234,1.234,0,0,0,.292-1.528,1.659,1.659,0,0,0-.4-.45,4,4,0,0,0-.61-.389q-.353-.187-.76-.393-.43-.218-.8-.441a3.458,3.458,0,0,1-.648-.494,2.041,2.041,0,0,1-.432-.61,2.086,2.086,0,0,1,.088-1.777,2.117,2.117,0,0,1,.648-.685,2.951,2.951,0,0,1,.915-.4,4.192,4.192,0,0,1,1.046-.132,4.011,4.011,0,0,1,1.772.292v1.083a3.218,3.218,0,0,0-1.869-.5,3.129,3.129,0,0,0-.631.065,1.79,1.79,0,0,0-.562.215,1.255,1.255,0,0,0-.4.384,1.022,1.022,0,0,0-.155.574,1.174,1.174,0,0,0,.118.544,1.33,1.33,0,0,0,.347.419,3.528,3.528,0,0,0,.56.367q.329.178.759.39t.837.459a3.817,3.817,0,0,1,.695.533,2.386,2.386,0,0,1,.473.647,1.829,1.829,0,0,1,.175.814,2.066,2.066,0,0,1-.238,1.029,1.952,1.952,0,0,1-.642.685,2.819,2.819,0,0,1-.931.381,5.132,5.132,0,0,1-1.112.117,4.555,4.555,0,0,1-.482-.031q-.287-.031-.585-.092a4.854,4.854,0,0,1-.565-.149,1.754,1.754,0,0,1-.427-.2" transform="translate(-27.87 -15.82)" fill="#c0bec0"/>
        <path id="패스_21" data-name="패스 21" d="M105.573,60.472h-4.357V52.251h4.174v.871h-3.21v2.735h2.97v.865h-2.97V59.6h3.394Z" transform="translate(-30.761 -15.88)" fill="#c0bec0"/>
        <path id="패스_22" data-name="패스 22" d="M112.828,60.549a3.61,3.61,0,0,1-2.8-1.152,4.273,4.273,0,0,1-1.052-3,4.531,4.531,0,0,1,1.072-3.164,3.745,3.745,0,0,1,2.919-1.181,3.527,3.527,0,0,1,2.743,1.147,4.291,4.291,0,0,1,1.041,3,4.543,4.543,0,0,1-1.066,3.182,3.674,3.674,0,0,1-2.855,1.169m.069-7.625a2.646,2.646,0,0,0-2.1.935,4.154,4.154,0,0,0-.021,4.9,2.571,2.571,0,0,0,2.056.926,2.7,2.7,0,0,0,2.133-.883,3.606,3.606,0,0,0,.78-2.47,3.772,3.772,0,0,0-.757-2.518,2.6,2.6,0,0,0-2.087-.888" transform="translate(-33.12 -15.82)" fill="#c0bec0"/>
        <path id="패스_23" data-name="패스 23" d="M128.435,57.147q0,3.462-3.124,3.463-2.992,0-2.993-3.331V52.251h.963v4.964q0,2.529,2.132,2.528,2.059,0,2.058-2.442V52.251h.963Z" transform="translate(-37.175 -15.88)" fill="#c0bec0"/>
        <path id="패스_24" data-name="패스 24" d="M138.32,60.472h-4.266V52.251h.963V59.6h3.3Z" transform="translate(-40.742 -15.88)" fill="#c0bec0"/>
        <path id="패스_25" data-name="패스 25" d="M151.975,60.068a4.827,4.827,0,0,1-2.271.481,3.664,3.664,0,0,1-2.809-1.129,4.168,4.168,0,0,1-1.055-2.963,4.373,4.373,0,0,1,1.188-3.189,4.026,4.026,0,0,1,3.009-1.215,4.817,4.817,0,0,1,1.939.339v1.025a3.944,3.944,0,0,0-1.95-.493,2.99,2.99,0,0,0-2.3.947,3.564,3.564,0,0,0-.88,2.528,3.393,3.393,0,0,0,.822,2.393,2.8,2.8,0,0,0,2.16.892,4.047,4.047,0,0,0,2.144-.551Z" transform="translate(-44.324 -15.82)" fill="#c0bec0"/>
        <path id="패스_26" data-name="패스 26" d="M161.324,60.472h-4.266V52.251h.963V59.6h3.3Z" transform="translate(-47.733 -15.88)" fill="#c0bec0"/>
        <path id="패스_27" data-name="패스 27" d="M169.355,60.472H165V52.251h4.174v.871h-3.21v2.735h2.97v.865h-2.97V59.6h3.394Z" transform="translate(-50.146 -15.88)" fill="#c0bec0"/>
        <path id="패스_28" data-name="패스 28" d="M179.48,60.472h-1.066l-.871-2.3h-3.486l-.819,2.3h-1.072l3.153-8.221h1ZM177.227,57.3l-1.291-3.5a3.39,3.39,0,0,1-.125-.551h-.023a3.107,3.107,0,0,1-.132.551l-1.279,3.5Z" transform="translate(-52.324 -15.88)" fill="#c0bec0"/>
        <path id="패스_29" data-name="패스 29" d="M190.305,60.472h-1.146l-1.376-2.3a5.1,5.1,0,0,0-.367-.548,2.089,2.089,0,0,0-.365-.37,1.265,1.265,0,0,0-.4-.21,1.654,1.654,0,0,0-.484-.066h-.791v3.5h-.963V52.251h2.454a3.517,3.517,0,0,1,.994.134,2.228,2.228,0,0,1,.791.41,1.916,1.916,0,0,1,.525.686,2.261,2.261,0,0,1,.189.96,2.317,2.317,0,0,1-.128.788,2.061,2.061,0,0,1-.367.639,2.231,2.231,0,0,1-.574.48,2.915,2.915,0,0,1-.754.306v.023a1.711,1.711,0,0,1,.358.21,1.971,1.971,0,0,1,.29.278,3.665,3.665,0,0,1,.273.363c.089.136.19.294.3.473Zm-4.931-7.35V56.1h1.307a1.99,1.99,0,0,0,.668-.109,1.55,1.55,0,0,0,.53-.313,1.433,1.433,0,0,0,.349-.5,1.672,1.672,0,0,0,.126-.663,1.291,1.291,0,0,0-.427-1.029,1.836,1.836,0,0,0-1.236-.37Z" transform="translate(-56.046 -15.88)" fill="#c0bec0"/>
        <path id="패스_30" data-name="패스 30" d="M202.2,60.549a3.61,3.61,0,0,1-2.8-1.152,4.273,4.273,0,0,1-1.052-3,4.531,4.531,0,0,1,1.072-3.164,3.745,3.745,0,0,1,2.919-1.181,3.527,3.527,0,0,1,2.743,1.147,4.291,4.291,0,0,1,1.041,3,4.543,4.543,0,0,1-1.066,3.182,3.674,3.674,0,0,1-2.855,1.169m.069-7.625a2.646,2.646,0,0,0-2.1.935,4.154,4.154,0,0,0-.021,4.9,2.571,2.571,0,0,0,2.056.926,2.7,2.7,0,0,0,2.133-.883,3.606,3.606,0,0,0,.78-2.47,3.772,3.772,0,0,0-.757-2.518,2.6,2.6,0,0,0-2.087-.888" transform="translate(-60.282 -15.82)" fill="#c0bec0"/>
        <path id="패스_31" data-name="패스 31" d="M217.733,60.472h-1.146l-1.376-2.3a4.907,4.907,0,0,0-.367-.548,2.088,2.088,0,0,0-.364-.37,1.269,1.269,0,0,0-.4-.21,1.649,1.649,0,0,0-.484-.066H212.8v3.5h-.963V52.251h2.454a3.52,3.52,0,0,1,.994.134,2.229,2.229,0,0,1,.791.41,1.915,1.915,0,0,1,.525.686,2.271,2.271,0,0,1,.189.96,2.3,2.3,0,0,1-.129.788,2.033,2.033,0,0,1-.367.639,2.217,2.217,0,0,1-.574.48,2.925,2.925,0,0,1-.754.306v.023a1.729,1.729,0,0,1,.358.21,1.972,1.972,0,0,1,.29.278,3.758,3.758,0,0,1,.273.363q.134.2.3.473Zm-4.93-7.35V56.1h1.307a1.987,1.987,0,0,0,.668-.109,1.551,1.551,0,0,0,.53-.313,1.434,1.434,0,0,0,.35-.5,1.671,1.671,0,0,0,.125-.663,1.288,1.288,0,0,0-.427-1.029,1.835,1.835,0,0,0-1.235-.37Z" transform="translate(-64.382 -15.88)" fill="#c0bec0"/>
        <path id="패스_32" data-name="패스 32" d="M225.664,53.123h-2.373v7.35h-.963v-7.35H219.96v-.871h5.7Z" transform="translate(-66.85 -15.88)" fill="#c0bec0"/>
        <path id="패스_33" data-name="패스 33" d="M236.188,60.472h-.963v-3.75h-4.254v3.75h-.963V52.251h.963v3.606h4.254V52.251h.963Z" transform="translate(-69.904 -15.88)" fill="#c0bec0"/>
        <path id="패스_34" data-name="패스 34" d="M245.062,60.549a3.611,3.611,0,0,1-2.8-1.152,4.273,4.273,0,0,1-1.052-3,4.528,4.528,0,0,1,1.072-3.164,3.743,3.743,0,0,1,2.919-1.181,3.525,3.525,0,0,1,2.743,1.147,4.288,4.288,0,0,1,1.041,3,4.543,4.543,0,0,1-1.066,3.182,3.672,3.672,0,0,1-2.855,1.169m.069-7.625a2.648,2.648,0,0,0-2.1.935,4.156,4.156,0,0,0-.02,4.9,2.57,2.57,0,0,0,2.055.926A2.7,2.7,0,0,0,247.2,58.8a3.61,3.61,0,0,0,.78-2.47,3.769,3.769,0,0,0-.757-2.518,2.6,2.6,0,0,0-2.087-.888" transform="translate(-73.308 -15.82)" fill="#c0bec0"/>
        <path id="패스_35" data-name="패스 35" d="M254.7,60.472V52.251h2.271q4.346,0,4.346,4.007a4.039,4.039,0,0,1-1.206,3.059,4.477,4.477,0,0,1-3.231,1.155Zm.963-7.35V59.6h1.227a3.479,3.479,0,0,0,2.517-.866,3.248,3.248,0,0,0,.9-2.454q0-3.158-3.36-3.159Z" transform="translate(-77.408 -15.88)" fill="#c0bec0"/>
        <path id="패스_36" data-name="패스 36" d="M269.607,60.549a3.61,3.61,0,0,1-2.8-1.152,4.273,4.273,0,0,1-1.052-3,4.531,4.531,0,0,1,1.072-3.164,3.745,3.745,0,0,1,2.919-1.181,3.527,3.527,0,0,1,2.743,1.147,4.291,4.291,0,0,1,1.041,3,4.543,4.543,0,0,1-1.066,3.182,3.674,3.674,0,0,1-2.855,1.169m.069-7.625a2.646,2.646,0,0,0-2.1.935,4.154,4.154,0,0,0-.021,4.9,2.571,2.571,0,0,0,2.056.926,2.7,2.7,0,0,0,2.133-.883,3.606,3.606,0,0,0,.78-2.47,3.773,3.773,0,0,0-.757-2.518,2.6,2.6,0,0,0-2.087-.888" transform="translate(-80.768 -15.82)" fill="#c0bec0"/>
        <path id="패스_37" data-name="패스 37" d="M285.873,60.472h-1.181l-4.231-6.553a2.655,2.655,0,0,1-.264-.516h-.035a8.44,8.44,0,0,1,.046,1.129v5.94h-.963V52.251h1.249l4.117,6.45q.258.4.332.551h.023a8.815,8.815,0,0,1-.057-1.21V52.251h.963Z" transform="translate(-84.868 -15.88)" fill="#c0bec0"/>
        <path id="패스_38" data-name="패스 38" d="M296.357,53.123h-2.374v7.35h-.963v-7.35h-2.367v-.871h5.7Z" transform="translate(-88.335 -15.88)" fill="#c0bec0"/>
        <rect id="사각형_3" data-name="사각형 3" width="0.963" height="8.221" transform="translate(209.312 36.371)" fill="#c0bec0"/>
        <path id="패스_39" data-name="패스 39" d="M310.55,60.068a4.824,4.824,0,0,1-2.271.481,3.663,3.663,0,0,1-2.809-1.129,4.168,4.168,0,0,1-1.055-2.963,4.372,4.372,0,0,1,1.187-3.189,4.027,4.027,0,0,1,3.01-1.215,4.813,4.813,0,0,1,1.938.339v1.025a3.939,3.939,0,0,0-1.95-.493,2.99,2.99,0,0,0-2.3.947,3.561,3.561,0,0,0-.88,2.528,3.39,3.39,0,0,0,.822,2.393,2.8,2.8,0,0,0,2.159.892,4.043,4.043,0,0,0,2.144-.551Z" transform="translate(-92.518 -15.82)" fill="#c0bec0"/>
        <path id="패스_40" data-name="패스 40" d="M325.615,60.068a4.824,4.824,0,0,1-2.271.481,3.663,3.663,0,0,1-2.809-1.129,4.168,4.168,0,0,1-1.055-2.963,4.372,4.372,0,0,1,1.187-3.189,4.028,4.028,0,0,1,3.01-1.215,4.814,4.814,0,0,1,1.938.339v1.025a3.94,3.94,0,0,0-1.95-.493,2.99,2.99,0,0,0-2.3.947,3.561,3.561,0,0,0-.88,2.528,3.39,3.39,0,0,0,.822,2.393,2.8,2.8,0,0,0,2.159.892,4.044,4.044,0,0,0,2.144-.551Z" transform="translate(-97.096 -15.82)" fill="#c0bec0"/>
        <path id="패스_41" data-name="패스 41" d="M334.963,60.472H330.7V52.251h.963V59.6h3.3Z" transform="translate(-100.505 -15.88)" fill="#c0bec0"/>
        <rect id="사각형_4" data-name="사각형 4" width="0.963" height="8.221" transform="translate(235.719 36.371)" fill="#c0bec0"/>
        <path id="패스_42" data-name="패스 42" d="M349.754,60.472h-1.181l-4.232-6.553a2.741,2.741,0,0,1-.264-.516h-.034a8.49,8.49,0,0,1,.045,1.129v5.94h-.963V52.251h1.249l4.117,6.45q.259.4.333.551h.023a8.68,8.68,0,0,1-.058-1.21V52.251h.963Z" transform="translate(-104.283 -15.88)" fill="#c0bec0"/>
        <rect id="사각형_5" data-name="사각형 5" width="0.963" height="8.221" transform="translate(247.626 36.371)" fill="#c0bec0"/>
        <path id="패스_43" data-name="패스 43" d="M365.594,60.068a4.823,4.823,0,0,1-2.27.481,3.661,3.661,0,0,1-2.809-1.129,4.165,4.165,0,0,1-1.055-2.963,4.37,4.37,0,0,1,1.188-3.189,4.027,4.027,0,0,1,3.01-1.215,4.808,4.808,0,0,1,1.937.339v1.025a3.936,3.936,0,0,0-1.949-.493,2.99,2.99,0,0,0-2.3.947,3.564,3.564,0,0,0-.88,2.528,3.39,3.39,0,0,0,.823,2.393,2.8,2.8,0,0,0,2.159.892,4.042,4.042,0,0,0,2.144-.551Z" transform="translate(-109.247 -15.82)" fill="#c0bec0"/>
      </g>
    </g>
    <g id="그룹_7044" data-name="그룹 7044" transform="translate(140 92)">
      <g id="그룹_7043" data-name="그룹 7043" transform="translate(388 -60)">
        <g id="그룹_7042" data-name="그룹 7042">
          <g id="그룹_7041" data-name="그룹 7041" clip-path="url(#clip-path-2)">
            <path id="패스_3173" data-name="패스 3173" d="M66.2,21.57H6.424A6.424,6.424,0,0,1,0,15.146V6.424A6.424,6.424,0,0,1,6.424,0H66.2a6.424,6.424,0,0,1,6.424,6.424v8.722A6.424,6.424,0,0,1,66.2,21.57" fill="#89bfcd"/>
          </g>
        </g>
        <path id="패스_3174" data-name="패스 3174" d="M7.314-10.117H.861v.889h1.23V-5.2C1.531-5.182,1-5.182.52-5.182l.137.9a48.747,48.747,0,0,0,7.109-.4L7.711-5.5c-.526.068-1.073.116-1.641.15V-9.229H7.314Zm3.254-.93H9.488v2.188H7.438v.889H9.488v1.285H7.438V-5.8H9.488v2.256h1.08ZM6.535-3.281c-2.543,0-4.074.793-4.074,2.174S3.992,1.08,6.535,1.08s4.074-.793,4.074-2.187S9.078-3.281,6.535-3.281Zm0,.834c1.873,0,3.008.506,3.008,1.34S8.408.232,6.535.232,3.514-.26,3.527-1.107C3.514-1.941,4.662-2.447,6.535-2.447Zm-3.4-2.762v-4.02h1.9v3.951C4.4-5.243,3.753-5.223,3.131-5.209Zm14.725-4.949H13.139v5.852H13.9a21.97,21.97,0,0,0,4.553-.342l-.109-.889a20.273,20.273,0,0,1-4.184.328V-6.891h3.555v-.848H14.164V-9.256h3.691Zm5.059-.875H21.889v3.172H20.18V-10.8h-1v7.055h1v-3.24h1.709v3.322h1.025Zm0,8H14.725v.875h7.137V1.107h1.053ZM34.439-9.816H25.867v.889h7.492V-8.6a25.6,25.6,0,0,1-.465,5.482l1.094.123A30.033,30.033,0,0,0,34.439-8.6ZM35.766-1.5H30.092V-5.852H29.039V-1.5H24.691v.889H35.766Zm7.287-8.7H37.461v5.838h.9a24.273,24.273,0,0,0,5.482-.4l-.123-.875a24.109,24.109,0,0,1-5.2.383V-9.311h4.525Zm3.814,7.041H38.691v.875h7.1V1.107h1.08Zm0-7.889h-1.08V-8H55.426v.9h2.461v3.172h1.08Zm12.1,0h-1.08V-8H65.537v.9h2.461v3.172h1.08Zm0,7.725H61.134V.943h7.943Zm-6.877.861h5.824V.068H62.2Zm1.025-6.426v-.479h2.721v-.889H59.398v.889h2.748v.479a4.46,4.46,0,0,1-3.09,3.992l.561.848A5.2,5.2,0,0,0,62.707-7.1,5,5,0,0,0,65.66-4.32l.561-.848A4.2,4.2,0,0,1,63.225-8.887Z" transform="translate(6.956 16.179)" fill="#fff"/>
      </g>
    </g>
  </g>
</svg>